<?xml version="1.0" encoding="utf-8"?>
<svg xmlns="http://www.w3.org/2000/svg" fill="none" viewBox="155 142 490 116">
<path fill="#240257" d="M169 248.376V153.654H199.988C207.385 153.654 213.475 154.917 218.256 157.442C223.127 159.968 226.736 163.396 229.081 167.727C231.517 171.967 232.735 176.793 232.735 182.206C232.735 188.34 231.156 193.798 227.999 198.579C224.931 203.27 220.195 206.698 213.79 208.863L233.682 248.376H217.038L198.905 210.893H183.344V248.376H169ZM183.344 197.903H199.176C205.671 197.903 210.407 196.459 213.384 193.572C216.452 190.686 217.985 186.897 217.985 182.206C217.985 177.424 216.497 173.636 213.52 170.839C210.543 167.952 205.716 166.509 199.041 166.509H183.344V197.903Z"/>
<path fill="#240257" d="M279.231 170.974C276.074 170.974 273.413 169.982 271.248 167.997C269.173 165.922 268.135 163.396 268.135 160.419C268.135 157.442 269.173 154.962 271.248 152.977C273.413 150.992 276.074 150 279.231 150C282.479 150 285.14 150.992 287.215 152.977C289.38 154.962 290.463 157.442 290.463 160.419C290.463 163.396 289.38 165.922 287.215 167.997C285.14 169.982 282.479 170.974 279.231 170.974ZM252.303 248.376V235.927H273.413V198.173C273.413 195.196 271.969 193.708 269.082 193.708H254.197V181.258H271.654C277.247 181.258 281.306 182.567 283.832 185.183C286.448 187.709 287.756 191.768 287.756 197.361V235.927H308.866V248.376H252.303Z"/>
<path fill="#240257" d="M330.329 248.376V235.927H352.791V167.862C352.791 164.885 351.348 163.396 348.461 163.396H332.223V150.947H351.032C356.265 150.947 360.234 152.346 362.94 155.142C365.737 157.848 367.135 161.818 367.135 167.05V235.927H389.733V248.376H330.329Z"/>
<path fill="#240257" d="M411.467 248.376V235.927H433.929V167.862C433.929 164.885 432.486 163.396 429.599 163.396H413.361V150.947H432.17C437.403 150.947 441.372 152.346 444.078 155.142C446.875 157.848 448.273 161.818 448.273 167.05V235.927H470.871V248.376H411.467Z"/>
<path fill="#240257" d="M524.81 250C518.315 250 512.586 248.557 507.625 245.67C502.663 242.693 498.784 238.588 495.987 233.356C493.191 228.124 491.793 222.034 491.793 215.088C491.793 208.051 493.146 201.872 495.852 196.549C498.649 191.227 502.528 187.077 507.49 184.1C512.541 181.123 518.36 179.635 524.946 179.635C531.441 179.635 537.034 181.123 541.725 184.1C546.416 186.987 550.024 190.866 552.55 195.737C555.167 200.609 556.475 205.977 556.475 211.84C556.475 212.742 556.475 213.735 556.475 214.817C556.475 215.81 556.43 216.937 556.339 218.2H505.866C506.317 224.425 508.347 229.161 511.955 232.409C515.563 235.566 519.803 237.145 524.675 237.145C528.915 237.145 532.253 236.288 534.688 234.574C537.214 232.77 539.064 230.334 540.236 227.267H554.715C553.092 233.672 549.709 239.084 544.567 243.505C539.425 247.835 532.839 250 524.81 250ZM524.81 192.084C520.39 192.084 516.466 193.437 513.038 196.143C509.609 198.76 507.399 202.458 506.407 207.24H542.131C541.77 202.729 540.011 199.075 536.854 196.279C533.696 193.482 529.682 192.084 524.81 192.084Z"/>
<path fill="#240257" d="M612.443 248.376C605.858 248.376 600.626 246.797 596.747 243.64C592.867 240.392 590.928 234.664 590.928 226.455V193.437H574.013V181.258H584.027C588.627 181.258 591.334 179.003 592.146 174.493L594.176 163.667H605.272V181.258H631.794V193.437H605.272V226.184C605.272 229.702 606.038 232.183 607.572 233.627C609.196 234.98 611.947 235.656 615.826 235.656H631.523V248.376H612.443Z"/>
</svg>